<?xml version="1.0" standalone="no"?>
<!DOCTYPE svg PUBLIC "-//W3C//DTD SVG 20010904//EN"
 "http://www.w3.org/TR/2001/REC-SVG-20010904/DTD/svg10.dtd">
<svg version="1.0" xmlns="http://www.w3.org/2000/svg"
 width="3974.000000pt" height="3256.000000pt" viewBox="0 0 3974.000000 3256.000000"
 preserveAspectRatio="xMidYMid meet">

<g transform="translate(0.000000,3256.000000) scale(0.100000,-0.100000)"
fill="#000000" stroke="none">
<path d="M27800 28564 c-647 -36 -1194 -116 -1735 -254 -2078 -530 -3492
-1872 -4190 -3975 -144 -433 -259 -920 -339 -1431 -46 -297 -104 -838 -93
-867 3 -8 23 -17 44 -20 53 -9 643 -163 931 -243 2166 -603 4219 -1451 6047
-2497 402 -230 888 -528 1205 -740 77 -52 232 -140 365 -207 565 -286 1059
-592 1537 -952 64 -48 120 -88 122 -88 13 0 -45 377 -95 619 -106 512 -269
1048 -485 1600 -50 128 -73 175 -88 181 -12 4 -125 42 -252 83 -849 277 -1633
693 -2149 1138 -282 243 -583 618 -625 778 -29 111 34 175 136 136 37 -14 62
-37 134 -125 390 -471 1011 -823 1809 -1026 317 -81 658 -135 1071 -171 295
-25 989 -25 1344 1 143 10 303 16 355 14 395 -21 1168 -338 2266 -930 374
-202 453 -228 683 -228 238 0 462 79 578 202 59 62 205 299 454 736 104 183
126 234 146 340 42 219 -10 390 -170 561 -45 47 -243 257 -441 466 -1031 1090
-1739 1854 -2010 2170 -286 333 -438 564 -505 765 -45 133 -74 354 -83 625
l-2 70 -782 615 c-430 338 -794 626 -809 640 -45 43 -77 118 -77 181 1 109 24
140 355 477 164 168 298 308 298 313 0 13 -256 168 -415 250 -487 252 -1094
463 -1726 599 -328 70 -795 128 -1414 176 -197 15 -1210 28 -1395 18z m5374
-3734 c65 -17 128 -41 144 -55 4 -3 -167 -564 -177 -581 -4 -7 -144 57 -395
180 l-389 191 85 81 c161 151 338 219 553 209 55 -3 136 -14 179 -25z"/>
<path d="M18570 28344 c-580 -50 -1261 -203 -2010 -453 -619 -207 -1162 -435
-1820 -766 -4520 -2274 -9029 -7271 -11530 -12780 -120 -264 -330 -748 -330
-761 0 -3 15 3 33 14 17 11 156 87 307 170 1846 1006 4084 2022 6360 2888 151
58 276 107 278 109 3 2 -12 66 -31 142 -199 769 -196 1559 8 2278 201 704 575
1326 1111 1845 1524 1474 4201 2015 7644 1544 436 -59 1128 -176 1529 -259 68
-14 128 -25 133 -25 6 0 8 10 5 23 -27 109 -92 666 -119 1017 -17 223 -17
1022 0 1250 47 628 121 1119 260 1730 63 273 67 307 67 525 -1 167 -4 219 -23
313 -68 337 -228 622 -460 816 -240 199 -535 319 -902 366 -89 11 -432 21
-510 14z"/>
<path d="M22535 11370 c-400 -36 -762 -114 -1105 -241 -183 -68 -544 -248
-714 -357 -537 -344 -1017 -832 -1322 -1345 -232 -390 -394 -824 -478 -1277
-93 -506 -93 -1130 0 -1640 158 -867 604 -1640 1279 -2220 625 -536 1335 -839
2197 -937 194 -22 800 -25 1013 -5 1092 103 1907 457 2543 1106 l122 124 0
1726 0 1726 -1630 0 -1630 0 0 -695 0 -695 850 0 850 0 -2 -707 -3 -706 -100
-53 c-285 -152 -638 -258 -1035 -311 -107 -14 -203 -18 -460 -18 -295 0 -337
2 -459 24 -509 88 -921 297 -1285 650 -135 132 -215 227 -312 373 -182 272
-306 607 -366 993 -30 191 -33 665 -5 850 88 590 318 1049 709 1420 410 388
920 617 1502 674 139 14 486 14 636 1 546 -50 918 -189 1327 -496 63 -47 116
-84 117 -83 22 24 906 1145 906 1149 0 3 -33 33 -72 66 -599 497 -1292 784
-2134 884 -201 24 -757 36 -939 20z"/>
<path d="M5120 7310 l0 -3750 825 0 825 0 0 1125 0 1125 668 0 c693 0 903 7
1159 40 1023 132 1817 640 2193 1405 119 243 188 466 231 745 27 176 37 552
19 741 -82 901 -546 1602 -1315 1987 -315 158 -607 245 -1020 304 -148 22
-168 22 -1867 25 l-1718 4 0 -3751z m3201 2245 c605 -80 967 -398 1043 -916
89 -600 -202 -1090 -755 -1273 -242 -80 -316 -86 -1144 -86 l-695 0 0 1145 0
1145 723 0 c565 0 745 -3 828 -15z"/>
<path d="M12260 7310 l0 -3750 2855 0 2855 0 0 735 0 735 -2035 0 -2035 0 0
765 0 765 1615 0 1615 0 0 735 0 735 -1615 0 -1615 0 0 785 0 785 2010 0 2010
0 0 730 0 730 -2830 0 -2830 0 0 -3750z"/>
<path d="M28455 7323 c-874 -2055 -1591 -3742 -1593 -3750 -3 -11 139 -13 831
-13 l834 0 132 323 c72 177 225 552 339 832 l208 510 1575 3 1576 2 339 -832
339 -833 858 -3 c471 -1 857 1 856 5 0 5 -717 1691 -1593 3748 l-1592 3740
-759 2 -760 3 -1590 -3737z m2824 556 l489 -1194 -980 -3 c-540 -1 -983 0
-986 2 -2 3 209 523 469 1158 539 1317 508 1242 514 1236 3 -2 225 -542 494
-1199z"/>
<path d="M33392 11044 c-418 -112 -560 -631 -257 -939 70 -71 188 -136 282
-155 84 -18 234 -8 308 20 81 30 186 101 235 158 58 67 108 173 127 271 49
246 -82 502 -312 611 -33 15 -84 33 -113 39 -72 15 -206 13 -270 -5z m276 -81
c75 -19 160 -72 224 -140 171 -184 169 -466 -4 -649 -100 -106 -210 -154 -353
-154 -240 0 -436 167 -477 408 -44 258 146 512 412 551 65 10 112 6 198 -16z"/>
<path d="M33330 10506 l0 -326 55 0 55 0 0 125 0 125 49 0 49 0 74 -125 73
-125 63 0 c73 0 77 -18 -29 157 l-70 115 44 39 c57 50 70 82 65 167 -4 79 -27
119 -85 148 -31 16 -66 20 -190 22 l-153 3 0 -325z m240 224 c53 -14 70 -31
77 -72 13 -84 -47 -137 -154 -138 l-53 0 0 110 0 110 48 0 c26 0 63 -5 82 -10z"/>
</g>
</svg>
